# xmcd
#
# Track frame offsets: 
#        182
#        19405
#        41940
#        65465
#        84840
#        103692
#        123245
#        143340
#        170192
#
# Disc length: 2774 seconds
#
# Revision: 8
# Processed by: cddbd v1.5.2PL0 Copyright (c) Steve Scherf et al.
# Submitted via: ExactAudioCopy v1.3
#
DISCID=760ad409
DTITLE=King, B. B. - There is always one more time
DYEAR=1991
DGENRE=Blues
TTITLE0=I'm moving on
TTITLE1=Back in L.A.
TTITLE2=The blues come over me
TTITLE3=Fool me once
TTITLE4=The lowdown
TTITLE5=Mean and evil
TTITLE6=Somthing up my sleeve
TTITLE7=Roll, roll, roll
TTITLE8=There is always one more time
EXTD=
EXTT0=
EXTT1=
EXTT2=
EXTT3=
EXTT4=
EXTT5=
EXTT6=
EXTT7=
EXTT8=
PLAYORDER=
